<svg width="1254" height="1150" xmlns="http://www.w3.org/2000/svg" preserveAspectRatio="xMidYMid meet">
 <metadata>Created by potrace 1.15, written by Peter Selinger 2001-2017</metadata>

 <g>
  <title>background</title>
  <rect fill="none" id="canvas_background" height="402" width="582" y="-1" x="-1"/>
 </g>
 <g>
  <title>Layer 1</title>
  <g id="svg_1" fill="#000000" transform="translate(0,1150) scale(0.10000000149011612,-0.10000000149011612) ">
   <path fill="#8450ff" id="svg_2" d="m8219,10721c-31,-10 -76,-32 -100,-49c-74,-52 -4193,-4181 -4223,-4234c-32,-56 -36,-71 -43,-169c-5,-65 -2,-86 18,-139c27,-70 84,-133 431,-481c174,-174 204,-200 273,-233c75,-38 78,-38 168,-34c66,3 106,10 142,27c42,18 266,238 1385,1355c1200,1198 1341,1335 1390,1356c105,45 265,36 345,-20c43,-30 1638,-1623 1636,-1634c-1,-3 10,-23 24,-44c32,-48 37,-69 40,-156c3,-74 -14,-140 -48,-191c-11,-16 -961,-973 -2112,-2125c-2364,-2368 -2149,-2137 -2150,-2315c0,-157 0,-157 358,-514c166,-166 320,-312 342,-325c89,-53 262,-48 360,9c22,13 1215,1200 2652,2637c2905,2906 2662,2651 2669,2809c3,77 0,93 -25,154c-28,67 -54,93 -1348,1389c-726,727 -1331,1339 -1345,1361c-90,144 -74,303 44,440c76,89 102,152 105,255c2,84 -6,125 -38,184c-9,15 -157,170 -330,343c-354,354 -361,359 -489,361c-48,1 -95,-5 -131,-17z"/>
   <path fill="#8450ff" id="svg_3" d="m4647,10220c-20,-5 -58,-21 -85,-34c-35,-18 -521,-499 -1889,-1868c-1778,-1779 -1843,-1845 -1873,-1911c-24,-53 -30,-82 -31,-135c0,-92 3,-108 37,-176c25,-51 257,-287 1865,-1895c1675,-1674 1842,-1839 1900,-1867c112,-55 238,-55 334,1c60,35 3729,3711 3752,3760c47,95 54,216 18,300c-7,19 -11,35 -7,35c4,0 -1,5 -10,11c-10,5 -18,17 -18,25c0,8 -134,149 -297,313c-267,266 -305,300 -367,330c-95,46 -178,52 -278,21l-73,-23l-1325,-1322c-729,-728 -1348,-1338 -1375,-1357c-65,-45 -108,-59 -186,-59c-72,-1 -149,22 -195,56c-30,23 -1358,1346 -1562,1557c-57,58 -104,112 -106,120c-1,7 -5,19 -9,25c-15,25 -21,59 -21,143c-2,160 -126,23 1369,1520c947,948 1339,1348 1355,1379c12,24 28,63 35,87c14,46 12,165 -3,198c-52,115 -60,125 -332,399c-265,266 -326,318 -408,353c-45,19 -164,26 -215,14z"/>
  </g>
 </g>
</svg>